<?xml version="1.0" encoding="UTF-8"?><svg id="Calque_1" xmlns="http://www.w3.org/2000/svg" viewBox="0 0 208.03 40.37"><defs><style>.cls-1{fill:#26507d;}.cls-1,.cls-2,.cls-3{stroke-width:0px;}.cls-2{fill:#fff;}.cls-3{fill:#008a8c;}</style></defs><path class="cls-1" d="m49.24,32.34V8.33h16.45v4.5h-10.62v5.22h9.22v4.54h-9.22v5.26h10.62v4.5h-16.45Z"/><path class="cls-1" d="m70.41,15.67c.46-.24,1.06-.49,1.8-.74s1.56-.47,2.45-.67c.89-.19,1.78-.35,2.68-.47.9-.12,1.73-.18,2.5-.18,1.63,0,3.02.21,4.18.63,1.15.42,2.03,1.1,2.65,2.03.61.94.92,2.21.92,3.82v12.24h-5.36v-11.16c0-.46-.07-.88-.2-1.26-.13-.38-.33-.71-.59-.99-.26-.28-.62-.49-1.08-.65s-1.01-.23-1.66-.23c-.55,0-1.1.07-1.66.2-.55.13-.97.27-1.26.41v13.68h-5.36V15.67Z"/><path class="cls-1" d="m100.57,32.88c-1.82,0-3.44-.38-4.84-1.13-1.4-.76-2.5-1.84-3.28-3.24-.78-1.4-1.17-3.08-1.17-5.02,0-3.17.79-5.62,2.36-7.36,1.57-1.74,3.82-2.61,6.75-2.61,2.02,0,3.64.43,4.88,1.3,1.24.86,2.14,2.12,2.72,3.78s.85,3.67.83,6.05h-13.86l-.58-3.42h10.01l-.79,1.69c-.02-1.94-.3-3.31-.83-4.1-.53-.79-1.39-1.19-2.59-1.19-.67,0-1.28.17-1.82.5s-.96.89-1.26,1.67c-.3.78-.45,1.85-.45,3.22,0,1.73.41,3.06,1.24,4,.83.94,2.15,1.4,3.98,1.4.67,0,1.34-.08,2-.23.66-.16,1.28-.34,1.85-.56.58-.22,1.07-.41,1.48-.58v4.61c-.86.36-1.83.65-2.9.88-1.07.23-2.31.34-3.73.34Z"/><path class="cls-1" d="m112.56,32.34v-16.31c.34-.29.94-.62,1.8-.99s1.85-.71,2.97-1.01c1.12-.3,2.24-.45,3.37-.45s2.02.08,2.66.25c.65.17,1.14.38,1.48.65v3.92c-.41-.1-.92-.17-1.55-.22-.62-.05-1.27-.08-1.94-.09-.67-.01-1.31,0-1.91.02-.6.02-1.1.07-1.51.14v14.08h-5.36Z"/><path class="cls-1" d="m134.95,32.88c-1.66-.1-3.08-.48-4.27-1.15-1.19-.67-2.11-1.66-2.77-2.97-.66-1.31-.99-2.96-.99-4.95s.25-3.69.76-5.02,1.21-2.37,2.11-3.11c.9-.74,1.99-1.27,3.26-1.58,1.27-.31,2.69-.47,4.25-.47s2.83.19,3.96.58c1.13.38,2,.94,2.63,1.66.62.72.94,1.61.94,2.66v14.04c0,1.27-.2,2.39-.61,3.37-.41.97-1.01,1.79-1.82,2.45-.8.66-1.78,1.16-2.92,1.49-1.14.33-2.45.5-3.94.5-1.61,0-2.98-.11-4.12-.34-1.14-.23-2.01-.51-2.61-.85v-4.72c.36.14.89.34,1.58.58.7.24,1.48.44,2.34.59s1.73.23,2.59.23c1.13,0,2-.16,2.61-.47.61-.31,1.04-.73,1.28-1.26.24-.53.36-1.13.36-1.8v-2.95l1.04.76c-.38.55-.84,1.03-1.37,1.44-.53.41-1.15.73-1.85.95-.71.23-1.52.34-2.43.34Zm1.37-4.03c.62,0,1.2-.07,1.73-.2.53-.13,1.03-.33,1.51-.59v-8.35c0-.5-.14-.89-.43-1.15-.29-.26-.65-.44-1.08-.54-.43-.1-.89-.14-1.37-.14-1.1,0-1.97.24-2.61.72-.64.48-1.09,1.15-1.37,2-.28.85-.41,1.82-.41,2.9,0,1.66.37,2.96,1.12,3.93.74.96,1.72,1.44,2.92,1.44Z"/><path class="cls-1" d="m149.32,11.64v-4.14h5.54v4.14h-5.54Zm.11,20.7V14.37h5.36l.04,17.96h-5.4Z"/><path class="cls-1" d="m158.86,32.34v-4.25l9.76-11.05.54,1.12h-10.08v-4.03h14.26v4.18l-9.07,11.12-.18-1.37h9.25v4.28h-14.47Z"/><path class="cls-1" d="m184.78,33.06c-2.11,0-3.68-.5-4.72-1.49-1.03-1-1.55-2.41-1.55-4.23v-9.11h-2.66v-4.1h2.66v-5h5.62v5h4v4.1h-4v8.42c0,.63.13,1.09.4,1.39.26.3.71.45,1.33.45.36,0,.76-.07,1.19-.22.43-.14.79-.32,1.08-.54v4.61c-.5.26-1.05.45-1.64.56-.59.11-1.16.16-1.71.16Z"/><path class="cls-1" d="m199.21,32.88c-1.1,0-2.14-.1-3.11-.31-.97-.2-1.82-.54-2.56-1.01-.73-.47-1.3-1.1-1.71-1.91s-.61-1.81-.61-3.01c0-1.13.23-2.11.7-2.95.47-.84,1.18-1.49,2.14-1.94s2.17-.68,3.64-.68c.82,0,1.61.08,2.38.25.77.17,1.46.4,2.07.68s1.1.6,1.46.94l.22,2.59c-.48-.29-1.06-.52-1.73-.68-.67-.17-1.39-.25-2.16-.25-1.18,0-2.03.17-2.57.52s-.81.89-.81,1.64c0,.46.13.86.4,1.22.26.36.62.64,1.06.83.44.19.91.29,1.39.29,1.22,0,2.08-.08,2.57-.25.49-.17.74-.5.74-1.01v-6.7c0-1.1-.35-1.9-1.06-2.39-.71-.49-1.71-.74-3.01-.74-1.06,0-2.12.19-3.19.56-1.07.37-1.94.82-2.61,1.35v-4.75c.62-.38,1.59-.74,2.9-1.08,1.31-.34,2.78-.5,4.41-.5.58,0,1.21.05,1.91.14.7.1,1.39.27,2.09.52.7.25,1.34.62,1.93,1.1.59.48,1.06,1.09,1.42,1.84.36.74.54,1.67.54,2.77l-.04,8.6c0,1.03-.35,1.87-1.04,2.5-.7.64-1.7,1.1-3.01,1.39-1.31.29-2.89.43-4.73.43Z"/><path class="cls-3" d="m40,0h-19.76c-.08,0-.16,0-.24,0C9.03,0,.13,8.83,0,19.76h0v20.24h20.24c10.94-.13,19.76-9.03,19.76-20,0-.08,0-.16,0-.24h0V0Z"/><polygon class="cls-2" points="14.06 8.41 22.24 8 20.9 15.05 25.94 14.43 18.4 32 18.89 19.84 14.12 21.84 14.06 8.41"/></svg>